# xmcd CD database file
#
# Track frame offsets:
#	150
#	16519
#	39074
#	66212
#	94016
#	117415
#	130682
#	155769
#	184581
#	216302
#	251636
#
# Disc length: 3582 seconds
#
# Revision: 0
# Processed by: cddbd v1.5.1PL2 Copyright (c) Steve Scherf et al.
# Submitted via: CDex 1.51
#
DISCID=8b0dfc0b
DTITLE=Ximo Tebar - Eclipse
DYEAR=2006
DGENRE=Jazz
TTITLE0=Inner Urge
TTITLE1=Martino
TTITLE2=Mensaje
TTITLE3=My Evidence (About Monk And Trane)
TTITLE4=Esp
TTITLE5=Ralladura
TTITLE6=Eclipse
TTITLE7=Pinocchio
TTITLE8=One Step Ahead
TTITLE9=Puré De Patata
TTITLE10=Tricotism
EXTD=YEAR: 2006
EXTT0=
EXTT1=
EXTT2=
EXTT3=
EXTT4=
EXTT5=
EXTT6=
EXTT7=
EXTT8=
EXTT9=
EXTT10=
PLAYORDER=
